<?xml version="1.0" encoding="UTF-8"?>
<svg id="a" data-name="Layer 1" xmlns="http://www.w3.org/2000/svg" viewBox="0 0 1066 1066">
  <g>
    <circle cx="532.84" cy="530.97" r="524.63" transform="translate(-219.38 532.29) rotate(-45)" fill="#303d3b" opacity=".2"/>
    <path d="M931.39,189.83c-8.43-9.84-17.21-19.37-26.33-28.55-475.48-23.64-744.1,102.22-860.72,178.03-5.43,13.83-10.26,27.96-14.52,42.34-14.03,47.33-21.6,97.44-21.6,149.32,0,289.74,234.88,524.63,524.63,524.63s524.63-234.88,524.63-524.63c0-130.26-47.49-249.41-126.08-341.14Z" fill="#303d3b" opacity=".2"/>
    <g opacity=".2">
      <path d="M322.28,1011.58c64.46,28.28,135.67,44.01,210.56,44.01,289.74,0,524.63-234.88,524.63-524.63,0-30.01-2.55-59.41-7.39-88.04-543.05,24.62-692.81,432.32-727.8,568.65Z" fill="#303d3b"/>
    </g>
    <g opacity=".2">
      <path d="M1032.23,692.07c-249.71,102.22-344.66,251.4-380.75,350.05,180.08-41.63,324.64-175.98,380.75-350.05Z" fill="#303d3b"/>
    </g>
  </g>
  <path d="M962.28,643.8c-108.69,33.46-181.06,137.11-281.35,110.05-97.16-26.2-115.23-213.76-115.23-213.76-5.83-21.97-7.26-45.55-3.7-69.41,7.06-47.34,16.43-97.1,8.88-143.16-10.43-63.66-59.72-96.41-123.67-101.17-62.84-4.67-119.09,33.44-140.32,91.41q-31.89,87.03-122.1,117.93c9.19,51.43,46.47,73.89,91.42,76.41,40.26,2.26,81.26-9.03,134.05-15.92-10.72,22.55-21.25,44.76-30.84,66.82-51.64,68.15-94.18,159.77-94.18,227.16,0,151.98,123.21,275.19,275.2,275.19,49,0,94.96-12.87,134.81-35.31l-.05,1.87c198.44-124.12,258.2-331.47,258.2-331.47,26.31-53.96,8.86-56.65,8.86-56.65Z" fill="#303d3b"/>
  <path d="M533,1066c-142.37,0-276.22-55.44-376.89-156.11C55.44,809.22,0,675.37,0,533S55.44,256.78,156.11,156.11C256.78,55.44,390.63,0,533,0s276.22,55.44,376.89,156.11c100.67,100.67,156.11,234.52,156.11,376.89s-55.44,276.22-156.11,376.89c-100.67,100.67-234.52,156.11-376.89,156.11ZM533,20.82c-136.81,0-265.43,53.28-362.17,150.02C74.09,267.57,20.82,396.19,20.82,533s53.28,265.43,150.02,362.17c96.74,96.74,225.36,150.02,362.17,150.02s265.43-53.28,362.17-150.02c96.74-96.74,150.02-225.36,150.02-362.17s-53.28-265.43-150.02-362.17c-96.74-96.74-225.36-150.02-362.17-150.02Z" fill="#303d3b"/>
</svg>