<?xml version="1.0" encoding="UTF-8"?>
<svg id="a" data-name="Layer 1" xmlns="http://www.w3.org/2000/svg" viewBox="0 0 1460.92 463.96">
  <g>
    <g>
      <circle cx="240.1" cy="237" r="192.43" transform="translate(-97.26 239.19) rotate(-45)" fill="#303d3b" opacity=".2"/>
      <path d="M386.29,111.87c-3.09-3.61-6.31-7.1-9.66-10.47-174.4-8.67-272.93,37.49-315.7,65.3-1.99,5.07-3.76,10.26-5.33,15.53-5.15,17.36-7.92,35.74-7.92,54.77,0,106.28,86.15,192.43,192.43,192.43s192.43-86.15,192.43-192.43c0-47.78-17.42-91.48-46.24-125.13Z" fill="#303d3b" opacity=".2"/>
      <g opacity=".2">
        <path d="M162.87,413.28c23.64,10.37,49.76,16.14,77.23,16.14,106.28,0,192.43-86.15,192.43-192.43,0-11.01-.94-21.79-2.71-32.29-199.19,9.03-254.12,158.57-266.95,208.58Z" fill="#303d3b"/>
      </g>
      <g opacity=".2">
        <path d="M423.27,296.09c-91.59,37.49-126.42,92.21-139.66,128.39,66.05-15.27,119.07-64.55,139.66-128.39Z" fill="#303d3b"/>
      </g>
    </g>
    <path d="M397.62,278.38c-39.87,12.27-66.41,50.29-103.2,40.37-35.64-9.61-42.27-78.41-42.27-78.41-2.14-8.06-2.66-16.71-1.36-25.46,2.59-17.37,6.02-35.61,3.26-52.51-3.82-23.35-21.9-35.36-45.36-37.11-23.05-1.71-43.68,12.27-51.47,33.53q-11.7,31.92-44.78,43.26c3.37,18.86,17.05,27.1,33.53,28.03,14.77.83,29.81-3.31,49.17-5.84-3.93,8.27-7.79,16.42-11.31,24.51-18.94,25-34.54,58.6-34.54,83.32,0,55.75,45.19,100.94,100.94,100.94,17.97,0,34.83-4.72,49.45-12.95l-.02.69c72.78-45.53,94.71-121.58,94.71-121.58,9.65-19.79,3.25-20.78,3.25-20.78Z" fill="#303d3b"/>
    <path d="M240.16,433.24c-52.22,0-101.31-20.34-138.24-57.26-36.93-36.92-57.26-86.02-57.26-138.24s20.34-101.31,57.26-138.24c36.92-36.93,86.02-57.26,138.24-57.26s101.31,20.34,138.24,57.26c36.93,36.92,57.26,86.02,57.26,138.24s-20.34,101.31-57.26,138.24c-36.92,36.93-86.02,57.26-138.24,57.26ZM240.16,49.88c-50.18,0-97.36,19.54-132.84,55.02-35.48,35.48-55.02,82.66-55.02,132.84s19.54,97.36,55.02,132.84c35.48,35.48,82.66,55.02,132.84,55.02s97.36-19.54,132.84-55.02c35.48-35.48,55.02-82.66,55.02-132.84s-19.54-97.36-55.02-132.84c-35.48-35.48-82.66-55.02-132.84-55.02Z" fill="#303d3b"/>
  </g>
  <g>
    <path d="M606.67,121.3c-7.22-3.44-15.53-5.71-24.34-7.89l-2.94-.92h-.5c-9.57-.84-18.22-4.37-23.17-7.81-2.27-1.59-3.86-2.94-4.62-4.2-.76-1.26-1.01-2.27-1.01-4.2,0-3.78,2.18-7.22,6.46-10.49,5.29-3.95,12.76-6.13,20.4-6.13,11,0,20.06,5.46,29.97,12,2.01,1.34,4.28,2.01,6.63,2.01,4.11,0,7.81-2.1,9.99-5.54,3.69-5.37,2.27-12.76-3.36-16.62l-.5-.34c-10.07-6.55-23.92-15.53-42.81-15.53-12.84,0-25.18,3.78-34.67,10.66-10.41,7.64-16.29,18.55-16.29,29.97,0,6.13,1.68,12,4.78,16.96,4.2,6.63,10.49,12,18.89,15.95,7.14,3.36,15.7,6.04,25.44,7.81h.59c9.99,1.51,19.48,4.7,25.52,8.65,2.43,1.59,4.03,3.19,5.2,5.12,1.09,1.76,1.43,3.11,1.43,5.12,0,4.45-2.52,8.56-7.47,12.26-5.88,4.28-14.19,6.72-23,6.72h-.42c-12.93,0-27.03-7.72-35.09-14.44-2.18-1.76-4.87-2.77-7.72-2.77-3.69,0-7.05,1.59-9.4,4.45-4.03,5.2-3.19,12.76,1.93,16.96,11.33,8.9,29.3,18.89,50.79,19.73h0c13.85,0,27.03-4.03,37.02-11.42,11.16-7.97,17.54-19.64,17.54-31.73,0-6.3-1.76-12.51-4.95-17.63-4.28-6.63-10.91-12.09-20.31-16.71Z" fill="#303d3b"/>
    <path d="M663.83,199.21c7.14,0,13.1-5.79,13.1-12.76v-114.08c0-6.88-6.04-12.76-13.1-12.76s-12.93,5.62-12.93,12.76v114.08c0,7.22,5.71,12.76,12.93,12.76Z" fill="#303d3b"/>
    <path d="M713.7,198.96h63.21c6.8,0,12.76-6.04,12.76-12.93s-5.79-13.1-12.76-13.1h-50.45v-100.57c0-7.05-5.71-12.76-12.68-12.76s-12.51,5.62-12.51,12.76v114.08c0,7.22,5.46,12.51,12.42,12.51Z" fill="#303d3b"/>
    <path d="M817.04,199.21c6.97,0,12.68-5.71,12.68-12.76v-114.08c0-7.05-5.71-12.76-12.68-12.76s-12.51,5.46-12.51,12.76v114.08c0,7.3,5.37,12.76,12.51,12.76Z" fill="#303d3b"/>
    <path d="M921.8,199.21c16.29,0,32.32-5.54,45.16-15.53,2.18-1.51,3.36-3.27,4.37-5.46l.17-.42v-.5h0l.25-.42.08-.34c.08-.34.08-.59.17-.92.17-.76.34-1.59.34-2.69v-42.73c0-7.3-5.96-13.52-13.26-13.52h-38.53c-7.39,0-13.1,5.71-13.1,12.93s6.04,13.1,13.1,13.1h25.69v23.76c-7.47,4.2-16.12,6.46-24.51,6.46-13.01,0-24.85-4.78-33.41-13.52-8.98-8.56-13.85-19.81-13.85-31.73s4.95-23.59,13.94-32.15c8.48-8.73,20.31-13.52,33.33-13.52,10.49,0,20.9,3.53,29.21,9.99,2.27,1.85,5.2,2.85,8.23,2.85,4.03,0,7.97-1.85,10.41-4.95,2.18-2.85,3.11-6.46,2.6-10.07-.5-3.53-2.35-6.55-5.04-8.56-12.68-9.99-28.79-15.53-45.41-15.53-40.55,0-73.45,32.24-73.45,71.94,0,19.22,7.64,37.27,21.57,50.7,14.02,13.43,32.4,20.82,51.96,20.82Z" fill="#303d3b"/>
    <path d="M1066.69,199.21c17.8,0,35.59-7.97,47.77-21.32,13.01-13.6,20.15-31.48,20.15-50.37s-7.14-36.6-20.06-50.37c-12-13.43-29.8-21.41-47.77-21.41s-36.35,7.81-48.94,21.32c-12.68,13.52-19.73,31.4-19.73,50.37s6.97,37.02,19.73,50.37c12.68,13.6,30.56,21.41,48.86,21.41ZM1066.69,82.02c10.83,0,21.15,4.62,29.05,13.1,7.97,8.56,12.59,20.4,12.59,32.4s-4.62,23.84-12.59,32.24c-7.97,8.56-18.3,13.26-29.05,13.26-11.42,0-21.74-4.62-29.8-13.26-7.97-8.14-12.59-19.9-12.59-32.15s4.62-24.01,12.59-32.4c7.97-8.65,18.3-13.18,29.8-13.18Z" fill="#303d3b"/>
    <path d="M1240.38,194.67c2.43,2.85,5.96,4.53,9.65,4.53,6.97,0,12.84-5.79,12.84-12.76v-112.4c0-6.8-5.79-12.51-12.68-12.51s-12.51,5.62-12.51,12.51v73.2l-58.85-81.18c-2.35-3.27-5.96-5.12-10.07-5.12-2.6,0-5.2.76-7.47,2.35-3.86,2.85-5.88,7.05-5.04,10.83v112.32c0,7.05,5.71,12.76,12.68,12.76s12.51-5.79,12.51-12.76v-73.79l57.84,80.5c.34.59.67,1.09,1.09,1.51Z" fill="#303d3b"/>
    <path d="M1392.23,116.69h-38.53c-7.39,0-13.1,5.71-13.1,12.93s6.04,13.1,13.1,13.1h25.77v23.76c-8.73,4.45-16.54,6.55-24.51,6.55-13.01,0-24.85-4.78-33.41-13.52-8.98-8.56-13.85-19.9-13.85-31.73s4.95-23.59,13.85-32.15c8.48-8.73,20.31-13.52,33.33-13.52,10.49,0,20.9,3.53,29.21,9.99,2.27,1.85,5.2,2.85,8.23,2.85,4.03,0,7.97-1.85,10.41-4.95,2.18-2.85,3.11-6.46,2.6-10.07-.5-3.53-2.35-6.55-5.04-8.56-12.68-9.99-28.79-15.53-45.41-15.53-40.55,0-73.45,32.24-73.45,71.94,0,19.22,7.64,37.27,21.57,50.7,13.85,13.43,32.24,20.82,51.88,20.82,16.29,0,32.4-5.54,45.25-15.53,2.35-1.68,3.53-3.61,4.37-5.46l.17-.42v-.5h0l.25-.42.08-.34c.08-.34.08-.59.17-.92.17-.76.34-1.59.34-2.69v-42.73c.08-7.39-5.88-13.6-13.26-13.6Z" fill="#303d3b"/>
    <path d="M771.03,265.27c-1.34-3.11-3.78-5.46-6.8-6.72-1.51-.67-3.19-1.01-4.87-1.01-5.12,0-9.74,3.02-11.75,7.72l-35.76,84.95-35.76-84.95c-2.01-4.7-6.55-7.72-11.58-7.72-1.68,0-3.36.34-4.87,1.01-3.19,1.26-5.71,3.61-6.97,6.8-1.34,3.11-1.26,6.63.08,9.65l47.43,112.99.17.34.25.25c.08.08.17.25.5.84.17.34.34.67.67.92.17.25.34.5.59.67v.84l.92.59c.25.17.5.17.67.17l.5.92h1.26c.08,0-.08.25,0,.25s0,.25,0,.25v.25h2.43l.25.84h1.76c.17,0,.42.17.67.25.42.08.84.17,1.26.17s.84-.08,1.18-.08c.25-.08.5-.08.76-.08l1.51-.25.34-.84h.92l.5-.17c.59-.25,1.01-.34,1.34-.59.08-.08.17-.08.17-.08.25-.08.59-.25.92-.59h0c.08-.08.25-.17.34-.34.25-.17.5-.42.76-.67.34-.34.5-.59.76-1.01l.17-.17c.08-.08.25-.25.34-.34.34-.25.59-.59.76-1.01.34-.42.5-.92.59-1.34,0-.08.08-.17.08-.25l47.85-113.08c1.09-2.77,1.01-6.3-.34-9.4Z" fill="#303d3b"/>
    <path d="M830.38,264.35c-2.1-5.04-6.88-8.23-12.17-8.06-5.2-.25-10.16,3.11-12.26,8.14l-42.73,114c-2.35,6.8,1.01,14.1,7.64,16.54h.08c1.43.5,2.77.67,4.37.67,5.29,0,9.99-3.36,12-8.23l8.98-23.92h44.07l8.98,23.92c1.76,4.87,6.55,8.23,11.84,8.23,1.68,0,3.27-.25,4.45-.67,6.63-2.52,9.99-9.74,7.64-16.62l-42.9-114ZM830.8,338.31h-25.27l12.59-33.49,12.68,33.49Z" fill="#303d3b"/>
    <path d="M963.77,369.37h-50.12v-100.57c0-6.88-6.04-12.76-13.1-12.76s-12.93,5.71-12.93,12.76v114.08c0,7.05,5.79,12.51,12.93,12.51h63.21c6.8,0,12.76-6.04,12.76-12.93s-5.79-13.1-12.76-13.1Z" fill="#303d3b"/>
    <path d="M1065.01,369.37h-50.62v-100.57c0-7.05-5.71-12.76-12.68-12.76s-12.51,5.62-12.51,12.76v114.08c0,7.14,5.46,12.51,12.51,12.51h63.21c6.8,0,12.76-6.04,12.76-12.93s-5.79-13.1-12.68-13.1Z" fill="#303d3b"/>
    <path d="M1166.17,281.22c7.05,0,12.76-5.71,12.76-12.68s-5.71-12.51-12.76-12.51h-63.21c-7.22,0-12.93,5.79-12.93,12.76v114.08c0,7.05,5.79,12.51,12.84,12.51h63.38c6.8,0,12.76-6.04,12.76-12.93s-5.79-13.1-12.76-13.1h-50.28v-31.06h42.81c6.88,0,12.76-6.04,12.76-13.1s-5.96-12.93-12.76-12.93h-42.81v-31.06h50.2Z" fill="#303d3b"/>
    <path d="M1292.34,259.98c-2.18-1.59-4.78-2.52-7.47-2.52-4.03,0-7.81,1.93-10.41,5.29l-31.4,42.98-31.31-42.9c-2.27-3.36-6.04-5.29-10.07-5.29-2.69,0-5.29.84-7.56,2.43-2.85,2.1-4.7,5.12-5.2,8.48-.42,3.27.42,6.55,2.52,9.15l38.7,53.73v51.54c0,6.88,5.96,12.76,13.01,12.76s13.01-5.71,13.01-12.76v-51.54l39.12-53.81c3.95-5.54,2.6-13.43-2.94-17.54Z" fill="#303d3b"/>
  </g>
</svg>