<?xml version="1.0" encoding="UTF-8"?>
<svg id="a" data-name="Layer 1" xmlns="http://www.w3.org/2000/svg" viewBox="0 0 838 1106">
  <g>
    <g>
      <circle cx="418.91" cy="409.82" r="295.29" transform="translate(-167.09 416.25) rotate(-45)" fill="#fff" opacity=".2"/>
      <path d="M643.23,217.81c-4.74-5.54-9.69-10.9-14.82-16.07-267.63-13.31-418.82,57.53-484.46,100.21-3.06,7.79-5.78,15.74-8.18,23.83-7.9,26.64-12.16,54.84-12.16,84.04,0,163.08,132.2,295.29,295.29,295.29s295.29-132.2,295.29-295.29c0-73.32-26.73-140.38-70.96-192.01Z" fill="#fff" opacity=".2"/>
      <g opacity=".2">
        <path d="M300.4,680.33c36.28,15.92,76.36,24.77,118.52,24.77,163.08,0,295.29-132.2,295.29-295.29,0-16.89-1.43-33.44-4.16-49.55-305.66,13.86-389.95,243.33-409.64,320.07Z" fill="#fff"/>
      </g>
      <g opacity=".2">
        <path d="M699.99,500.5c-140.55,57.54-193.99,141.5-214.31,197.02,101.36-23.43,182.72-99.05,214.31-197.02Z" fill="#fff"/>
      </g>
    </g>
    <path d="M660.62,473.33c-61.18,18.83-101.91,77.17-158.36,61.94-54.69-14.75-64.86-120.32-64.86-120.32-3.28-12.37-4.09-25.64-2.08-39.07,3.97-26.65,9.25-54.65,5-80.58-5.87-35.83-33.61-54.27-69.61-56.95-35.37-2.63-67.03,18.82-78.98,51.45q-17.95,48.98-68.72,66.38c5.17,28.94,26.16,41.59,51.45,43.01,22.66,1.27,45.74-5.08,75.45-8.96-6.03,12.69-11.96,25.19-17.36,37.61-29.07,38.36-53.01,89.93-53.01,127.86,0,85.54,69.35,154.89,154.9,154.89,27.58,0,53.45-7.24,75.88-19.87l-.03,1.05c111.69-69.86,145.33-186.57,145.33-186.57,14.81-30.37,4.99-31.88,4.99-31.88Z" fill="#fff"/>
    <path d="M419,710.96c-80.13,0-155.47-31.21-212.13-87.87-56.66-56.66-87.87-132-87.87-212.13s31.21-155.47,87.87-212.13c56.66-56.66,132-87.87,212.13-87.87s155.47,31.21,212.13,87.87c56.66,56.66,87.87,132,87.87,212.13s-31.21,155.47-87.87,212.13c-56.66,56.66-132,87.87-212.13,87.87ZM419,122.68c-77,0-149.4,29.99-203.85,84.44-54.45,54.45-84.44,126.84-84.44,203.85s29.99,149.4,84.44,203.85c54.45,54.45,126.84,84.44,203.85,84.44s149.4-29.99,203.85-84.44c54.45-54.45,84.44-126.84,84.44-203.85s-29.99-149.4-84.44-203.85c-54.45-54.45-126.84-84.44-203.85-84.44Z" fill="#fff"/>
  </g>
  <g>
    <path d="M178.89,811.1c-4.84-2.31-10.41-3.83-16.32-5.29l-1.97-.62h-.34c-6.42-.56-12.21-2.93-15.53-5.23-1.52-1.07-2.59-1.97-3.1-2.81s-.68-1.52-.68-2.81c0-2.53,1.46-4.84,4.33-7.04,3.55-2.65,8.56-4.11,13.68-4.11,7.37,0,13.45,3.66,20.09,8.05,1.35.9,2.87,1.35,4.45,1.35,2.76,0,5.23-1.41,6.7-3.71,2.48-3.6,1.52-8.56-2.25-11.14l-.34-.23c-6.75-4.39-16.04-10.41-28.71-10.41-8.61,0-16.89,2.53-23.25,7.15-6.98,5.12-10.92,12.44-10.92,20.09,0,4.11,1.13,8.05,3.21,11.37,2.81,4.45,7.04,8.05,12.66,10.69,4.78,2.25,10.53,4.05,17.05,5.23h.39c6.7,1.01,13.06,3.15,17.11,5.8,1.63,1.07,2.7,2.14,3.49,3.43.73,1.18.96,2.08.96,3.43,0,2.98-1.69,5.74-5.01,8.22-3.94,2.87-9.51,4.5-15.42,4.5h-.28c-8.67,0-18.12-5.18-23.53-9.68-1.46-1.18-3.26-1.86-5.18-1.86-2.48,0-4.73,1.07-6.3,2.98-2.7,3.49-2.14,8.56,1.29,11.37,7.6,5.97,19.64,12.66,34.05,13.23h0c9.29,0,18.12-2.7,24.82-7.65,7.49-5.35,11.76-13.17,11.76-21.28,0-4.22-1.18-8.39-3.32-11.82-2.87-4.45-7.32-8.11-13.62-11.2Z" fill="#fff"/>
    <path d="M217.22,863.33c4.78,0,8.78-3.88,8.78-8.56v-76.49c0-4.62-4.05-8.56-8.78-8.56s-8.67,3.77-8.67,8.56v76.49c0,4.84,3.83,8.56,8.67,8.56Z" fill="#fff"/>
    <path d="M250.65,863.16h42.38c4.56,0,8.56-4.05,8.56-8.67s-3.88-8.78-8.56-8.78h-33.83v-67.43c0-4.73-3.83-8.56-8.5-8.56s-8.39,3.77-8.39,8.56v76.49c0,4.84,3.66,8.39,8.33,8.39Z" fill="#fff"/>
    <path d="M319.94,863.33c4.67,0,8.5-3.83,8.5-8.56v-76.49c0-4.73-3.83-8.56-8.5-8.56s-8.39,3.66-8.39,8.56v76.49c0,4.9,3.6,8.56,8.39,8.56Z" fill="#fff"/>
    <path d="M390.18,863.33c10.92,0,21.67-3.71,30.28-10.41,1.46-1.01,2.25-2.2,2.93-3.66l.11-.28v-.34h0l.17-.28.06-.23c.06-.23.06-.39.11-.62.11-.51.23-1.07.23-1.8v-28.65c0-4.9-4-9.06-8.89-9.06h-25.83c-4.95,0-8.78,3.83-8.78,8.67s4.05,8.78,8.78,8.78h17.22v15.93c-5.01,2.81-10.81,4.33-16.44,4.33-8.72,0-16.66-3.21-22.4-9.06-6.02-5.74-9.29-13.28-9.29-21.28s3.32-15.82,9.34-21.56c5.68-5.85,13.62-9.06,22.35-9.06,7.04,0,14.01,2.36,19.59,6.7,1.52,1.24,3.49,1.91,5.52,1.91,2.7,0,5.35-1.24,6.98-3.32,1.46-1.91,2.08-4.33,1.74-6.75-.34-2.36-1.58-4.39-3.38-5.74-8.5-6.7-19.31-10.41-30.45-10.41-27.19,0-49.25,21.61-49.25,48.24,0,12.89,5.12,24.99,14.47,34,9.4,9.01,21.73,13.96,34.84,13.96Z" fill="#fff"/>
    <path d="M487.33,863.33c11.93,0,23.86-5.35,32.03-14.3,8.72-9.12,13.51-21.11,13.51-33.77s-4.78-24.54-13.45-33.77c-8.05-9.01-19.98-14.35-32.03-14.35s-24.37,5.23-32.81,14.3c-8.5,9.06-13.23,21.05-13.23,33.77s4.67,24.82,13.23,33.77c8.5,9.12,20.49,14.35,32.76,14.35ZM487.33,784.75c7.26,0,14.18,3.1,19.47,8.78,5.35,5.74,8.44,13.68,8.44,21.73s-3.1,15.98-8.44,21.61c-5.35,5.74-12.27,8.89-19.47,8.89-7.65,0-14.58-3.1-19.98-8.89-5.35-5.46-8.44-13.34-8.44-21.56s3.1-16.1,8.44-21.73c5.35-5.8,12.27-8.84,19.98-8.84Z" fill="#fff"/>
    <path d="M603.78,860.29c1.63,1.91,4,3.04,6.47,3.04,4.67,0,8.61-3.88,8.61-8.56v-75.37c0-4.56-3.88-8.39-8.5-8.39s-8.39,3.77-8.39,8.39v49.08l-39.46-54.43c-1.58-2.2-4-3.43-6.75-3.43-1.74,0-3.49.51-5.01,1.58-2.59,1.91-3.94,4.73-3.38,7.26v75.31c0,4.73,3.83,8.56,8.5,8.56s8.39-3.88,8.39-8.56v-49.47l38.78,53.98c.23.39.45.73.73,1.01Z" fill="#fff"/>
    <path d="M705.6,808h-25.83c-4.95,0-8.78,3.83-8.78,8.67s4.05,8.78,8.78,8.78h17.28v15.93c-5.85,2.98-11.09,4.39-16.44,4.39-8.72,0-16.66-3.21-22.4-9.06-6.02-5.74-9.29-13.34-9.29-21.28s3.32-15.82,9.29-21.56c5.68-5.85,13.62-9.06,22.35-9.06,7.04,0,14.01,2.36,19.59,6.7,1.52,1.24,3.49,1.91,5.52,1.91,2.7,0,5.35-1.24,6.98-3.32,1.46-1.91,2.08-4.33,1.74-6.75-.34-2.36-1.58-4.39-3.38-5.74-8.5-6.7-19.31-10.41-30.45-10.41-27.19,0-49.25,21.61-49.25,48.24,0,12.89,5.12,24.99,14.47,34,9.29,9.01,21.61,13.96,34.78,13.96,10.92,0,21.73-3.71,30.34-10.41,1.58-1.13,2.36-2.42,2.93-3.66l.11-.28v-.34h0l.17-.28.06-.23c.06-.23.06-.39.11-.62.11-.51.23-1.07.23-1.8v-28.65c.06-4.95-3.94-9.12-8.89-9.12Z" fill="#fff"/>
    <path d="M289.09,907.62c-.9-2.08-2.53-3.66-4.56-4.5-1.01-.45-2.14-.68-3.26-.68-3.43,0-6.53,2.03-7.88,5.18l-23.98,56.96-23.98-56.96c-1.35-3.15-4.39-5.18-7.77-5.18-1.13,0-2.25.23-3.26.68-2.14.84-3.83,2.42-4.67,4.56-.9,2.08-.84,4.45.06,6.47l31.8,75.76.11.23.17.17c.06.06.11.17.34.56.11.23.23.45.45.62.11.17.23.34.39.45v.56l.62.39c.17.11.34.11.45.11l.34.62h.84c.06,0-.06.17,0,.17s0,.17,0,.17v.17h1.63l.17.56h1.18c.11,0,.28.11.45.17.28.06.56.11.84.11s.56-.06.79-.06c.17-.06.34-.06.51-.06l1.01-.17.23-.56h.62l.34-.11c.39-.17.68-.23.9-.39.06-.06.11-.06.11-.06.17-.06.39-.17.62-.39h0c.06-.06.17-.11.23-.23.17-.11.34-.28.51-.45.23-.23.34-.39.51-.68l.11-.11.23-.23c.23-.17.39-.39.51-.68.23-.28.34-.62.39-.9,0-.06.06-.11.06-.17l32.08-75.82c.73-1.86.68-4.22-.22-6.3Z" fill="#fff"/>
    <path d="M328.89,907.01c-1.41-3.38-4.62-5.52-8.16-5.4-3.49-.17-6.81,2.08-8.22,5.46l-28.65,76.44c-1.58,4.56.68,9.46,5.12,11.09h.06c.96.34,1.86.45,2.93.45,3.55,0,6.7-2.25,8.05-5.52l6.02-16.04h29.55l6.02,16.04c1.18,3.26,4.39,5.52,7.94,5.52,1.13,0,2.2-.17,2.98-.45,4.45-1.69,6.7-6.53,5.12-11.14l-28.76-76.44ZM329.17,956.59h-16.94l8.44-22.46,8.5,22.46Z" fill="#fff"/>
    <path d="M418.32,977.42h-33.6v-67.43c0-4.62-4.05-8.56-8.78-8.56s-8.67,3.83-8.67,8.56v76.49c0,4.73,3.88,8.39,8.67,8.39h42.38c4.56,0,8.56-4.05,8.56-8.67s-3.88-8.78-8.56-8.78Z" fill="#fff"/>
    <path d="M486.2,977.42h-33.94v-67.43c0-4.73-3.83-8.56-8.5-8.56s-8.39,3.77-8.39,8.56v76.49c0,4.78,3.66,8.39,8.39,8.39h42.38c4.56,0,8.56-4.05,8.56-8.67s-3.88-8.78-8.5-8.78Z" fill="#fff"/>
    <path d="M554.03,918.32c4.73,0,8.56-3.83,8.56-8.5s-3.83-8.39-8.56-8.39h-42.38c-4.84,0-8.67,3.88-8.67,8.56v76.49c0,4.73,3.88,8.39,8.61,8.39h42.5c4.56,0,8.56-4.05,8.56-8.67s-3.88-8.78-8.56-8.78h-33.71v-20.83h28.71c4.62,0,8.56-4.05,8.56-8.78s-4-8.67-8.56-8.67h-28.71v-20.83h33.66Z" fill="#fff"/>
    <path d="M638.62,904.08c-1.46-1.07-3.21-1.69-5.01-1.69-2.7,0-5.23,1.29-6.98,3.55l-21.05,28.82-20.99-28.76c-1.52-2.25-4.05-3.55-6.75-3.55-1.8,0-3.55.56-5.07,1.63-1.91,1.41-3.15,3.43-3.49,5.68-.28,2.2.28,4.39,1.69,6.14l25.95,36.02v34.56c0,4.62,4,8.56,8.72,8.56s8.72-3.83,8.72-8.56v-34.56l26.23-36.08c2.65-3.71,1.74-9.01-1.97-11.76Z" fill="#fff"/>
  </g>
</svg>